{"title":"Phase.IV.1974.HQTV.720p.x264.AC3.[FrOnkY]","uid":9675501,"size":3720951069,"categoryP":"video","categoryS":"hd___movies","magnet":"?xt=urn:btih:cbc4478bbf6b4d8632b83b8b58766c8ae5a15403&amp;dn=Phase.IV.1974.HQTV.720p.x264.AC3.%5BFrOnkY%5D&amp;tr=udp%3A%2F%2Ftracker.openbittorrent.com%3A80&amp;tr=udp%3A%2F%2Fopen.demonii.com%3A1337&amp;tr=udp%3A%2F%2Ftracker.coppersurfer.tk%3A6969&amp;tr=udp%3A%2F%2Fexodus.desync.com%3A6969","seeders":6,"leechers":0,"uploader":"HDmEntEs","files":-1,"time":1393554036,"description":"Adapt or Die. \n\n\nPhase.IV.(Sucesos.En.La.IV.Fase).1974.HQTV.720p.x264.AC3.[FrOnkY].mkv\n\nFormat                                   : Matroska\nFormat version                           : Version 4 / Version 2\nFile size                                : 3.47 GiB\nDuration                                 : 1h 23mn\nOverall bit rate                         : 5 943 Kbps\nWriting application                      : mkvmerge v6.2.0 ('Promised Land') built on Apr 28 2013 12:22:01\nWriting library                          : libebml v1.3.0 + libmatroska v1.4.0\nAttachment                               : Yes / Yes / Yes / Yes\n\nVideo\nID                                       : 1\nFormat                                   : AVC\nFormat/Info                              : Advanced Video Codec\nFormat profile                           : &lt;a class=&quot;__cf_email__&quot; href=&quot;/cdn-cgi/l/email-protection&quot; data-cfemail=&quot;98d0f1fff0d8d4acb6a9&quot;&gt;[email&amp;#160;protected]&lt;/a&gt;&lt;script cf-hash='f9e31' type=&quot;text/javascript&quot;&gt;\n/* &lt;![CDATA[ */!function(){try{var t=&quot;currentScript&quot;in document?document.currentScript:function(){for(var t=document.getElementsByTagName(&quot;script&quot;),e=t.length;e--;)if(t[e].getAttribute(&quot;cf-hash&quot;))return t[e]}();if(t&amp;&amp;t.previousSibling){var e,r,n,i,c=t.previousSibling,a=c.getAttribute(&quot;data-cfemail&quot;);if(a){for(e=&quot;&quot;,r=parseInt(a.substr(0,2),16),n=2;a.length-n;n+=2)i=parseInt(a.substr(n,2),16)^r,e+=String.fromCharCode(i);e=document.createTextNode(e),c.parentNode.replaceChild(e,c)}}}catch(u){}}();/* ]]&gt; */&lt;/script&gt;\nFormat settings, CABAC                   : Yes\nFormat settings, ReFrames                : 9 frames\nCodec ID                                 : V_MPEG4/ISO/AVC\nDuration                                 : 1h 23mn\nBit rate                                 : 5 555 Kbps\nWidth                                    : 1 280 pixels\nHeight                                   : 692 pixels\nDisplay aspect ratio                     : 1.85:1\nFrame rate mode                          : Constant\nFrame rate                               : 23.976 fps\nColor space                              : YUV\nChroma subsampling                       : 4:2:0\nBit depth                                : 8 bits\nScan type                                : Progressive\nBits/(Pixel*Frame)                       : 0.262\nStream size                              : 3.17 GiB (92%)\nWriting library                          : x264 core 133 r2334 a3ac64b\nLanguage                                 : English\nDefault                                  : Yes\nForced                                   : No\n\nAudio #1\nID                                       : 2\nFormat                                   : AC-3\nFormat/Info                              : Audio Coding 3\nMode extension                           : CM (complete main)\nFormat settings, Endianness              : Big\nCodec ID                                 : A_AC3\nDuration                                 : 1h 23mn\nBit rate mode                            : Constant\nBit rate                                 : 192 Kbps\nChannel(s)                               : 2 channels\nChannel positions                        : Front: L R\nSampling rate                            : 48.0 KHz\nBit depth                                : 16 bits\nStream size                              : 115 MiB (3%)\nLanguage                                 : Spanish\nDefault                                  : Yes\nForced                                   : No\n\nAudio #2\nID                                       : 3\nFormat                                   : AC-3\nFormat/Info                              : Audio Coding 3\nMode extension                           : CM (complete main)\nFormat settings, Endianness              : Big\nCodec ID                                 : A_AC3\nDuration                                 : 1h 23mn\nBit rate mode                            : Constant\nBit rate                                 : 192 Kbps\nChannel(s)                               : 2 channels\nChannel positions                        : Front: L R\nSampling rate                            : 48.0 KHz\nBit depth                                : 16 bits\nStream size                              : 115 MiB (3%)\nLanguage                                 : English\nDefault                                  : No\nForced                                   : No\n\nText #1\nID                                       : 4\nFormat                                   : UTF-8\nCodec ID                                 : S_TEXT/UTF8\nCodec ID/Info                            : UTF-8 Plain Text\nTitle                                    : for\nLanguage                                 : Spanish\nDefault                                  : Yes\nForced                                   : No\n\nText #2\nID                                       : 5\nFormat                                   : UTF-8\nCodec ID                                 : S_TEXT/UTF8\nCodec ID/Info                            : UTF-8 Plain Text\nLanguage                                 : Spanish\nDefault                                  : No\nForced                                   : No\n\nText #3\nID                                       : 6\nFormat                                   : UTF-8\nCodec ID                                 : S_TEXT/UTF8\nCodec ID/Info                            : UTF-8 Plain Text\nLanguage                                 : English\nDefault                                  : No\nForced                                   : No\n\nText #4\nID                                       : 7\nFormat                                   : UTF-8\nCodec ID                                 : S_TEXT/UTF8\nCodec ID/Info                            : UTF-8 Plain Text\nLanguage                                 : French\nDefault                                  : No\nForced                                   : No\n\nMenu\n00:00:00.000                             : en:Chapter 01\n00:07:37.000                             : en:Chapter 02\n00:14:30.801                             : en:Chapter 03\n00:17:29.602                             : en:Chapter 04\n00:27:27.403                             : en:Chapter 05\n00:36:03.803                             : en:Chapter 06\n00:42:37.704                             : en:Chapter 07\n00:47:40.804                             : en:Chapter 08\n00:56:10.304                             : en:Chapter 09\n01:02:31.105                             : en:Chapter 10\n01:12:21.906                             : en:Chapter 11\n01:20:47.707                             : en:Chapter 12\n01:23:22.575                             : en:Chapter 13\n\n\nSCREENS\n &lt;a href=&quot;\nhttp://box.jisko.net/i/29fb28d7.png&quot; rel=&quot;nofollow&quot; target=&quot;_NEW&quot;&gt;\nhttp://box.jisko.net/i/29fb28d7.png&lt;/a&gt;\n &lt;a href=&quot;\nhttp://box.jisko.net/i/f0843f49.png&quot; rel=&quot;nofollow&quot; target=&quot;_NEW&quot;&gt;\nhttp://box.jisko.net/i/f0843f49.png&lt;/a&gt;\n &lt;a href=&quot;\nhttp://box.jisko.net/i/92202e1c.png&quot; rel=&quot;nofollow&quot; target=&quot;_NEW&quot;&gt;\nhttp://box.jisko.net/i/92202e1c.png&lt;/a&gt;\n &lt;a href=&quot;\nhttp://box.jisko.net/i/d81340ee.png&quot; rel=&quot;nofollow&quot; target=&quot;_NEW&quot;&gt;\nhttp://box.jisko.net/i/d81340ee.png&lt;/a&gt;\n &lt;a href=&quot;\nhttp://box.jisko.net/i/08a730a9.png&quot; rel=&quot;nofollow&quot; target=&quot;_NEW&quot;&gt;\nhttp://box.jisko.net/i/08a730a9.png&lt;/a&gt;\n &lt;a href=&quot;\nhttp://box.jisko.net/i/a5ad4568.png&quot; rel=&quot;nofollow&quot; target=&quot;_NEW&quot;&gt;\nhttp://box.jisko.net/i/a5ad4568.png&lt;/a&gt;\n &lt;a href=&quot;\nhttp://box.jisko.net/i/411af02f.png&quot; rel=&quot;nofollow&quot; target=&quot;_NEW&quot;&gt;\nhttp://box.jisko.net/i/411af02f.png&lt;/a&gt;\n &lt;a href=&quot;\nhttp://box.jisko.net/i/ca2ea5f3.png&quot; rel=&quot;nofollow&quot; target=&quot;_NEW&quot;&gt;\nhttp://box.jisko.net/i/ca2ea5f3.png&lt;/a&gt;\n &lt;a href=&quot;\nhttp://box.jisko.net/i/26fcf925.png&quot; rel=&quot;nofollow&quot; target=&quot;_NEW&quot;&gt;\nhttp://box.jisko.net/i/26fcf925.png&lt;/a&gt;\n &lt;a href=&quot;\nhttp://box.jisko.net/i/246a12bc.png&quot; rel=&quot;nofollow&quot; target=&quot;_NEW&quot;&gt;\nhttp://box.jisko.net/i/246a12bc.png&lt;/a&gt;\n\nDVD vs HQTV\n &lt;a href=&quot;\nhttp://box.jisko.net/i/fb6b9440.png&quot; rel=&quot;nofollow&quot; target=&quot;_NEW&quot;&gt;\nhttp://box.jisko.net/i/fb6b9440.png&lt;/a&gt; &lt;a href=&quot;\nhttp://box.jisko.net/i/7d9ff008.png&quot; rel=&quot;nofollow&quot; target=&quot;_NEW&quot;&gt;\nhttp://box.jisko.net/i/7d9ff008.png&lt;/a&gt;\n &lt;a href=&quot;\nhttp://box.jisko.net/i/32312488.png&quot; rel=&quot;nofollow&quot; target=&quot;_NEW&quot;&gt;\nhttp://box.jisko.net/i/32312488.png&lt;/a&gt; &lt;a href=&quot;\nhttp://box.jisko.net/i/730c6166.png&quot; rel=&quot;nofollow&quot; target=&quot;_NEW&quot;&gt;\nhttp://box.jisko.net/i/730c6166.png&lt;/a&gt;","torrent":{"xt":"urn:btih:cbc4478bbf6b4d8632b83b8b58766c8ae5a15403","amp;dn":"Phase.IV.1974.HQTV.720p.x264.AC3.%5BFrOnkY%5D","amp;tr":["udp%3A%2F%2Ftracker.openbittorrent.com%3A80","udp%3A%2F%2Fopen.demonii.com%3A1337","udp%3A%2F%2Ftracker.coppersurfer.tk%3A6969","udp%3A%2F%2Fexodus.desync.com%3A6969"],"infoHash":"cbc4478bbf6b4d8632b83b8b58766c8ae5a15403","infoHashBuffer":{"type":"Buffer","data":[203,196,71,139,191,107,77,134,50,184,59,139,88,118,108,138,229,161,84,3]},"announce":[],"urlList":[]}}